<svg xmlns="http://www.w3.org/2000/svg" viewBox="0 0 44 43">
	<path d="M34.9 42.9H6.8c-1.4 0-2.4-1.2-2.3-2.5l3-28.1c.1-1.2 1.1-2 2.3-2h28.1c1.4 0 2.4 1.2 2.3 2.5l-3 28.1c-.1 1.1-1.1 2-2.3 2z" opacity=".6"/>
	<path d="M36.8 39.2H4.5c-1.6 0-2.8-1.3-2.6-2.9L5.4 4.1C5.5 2.8 6.7 1.8 8 1.8h32.2c1.6 0 2.8 1.3 2.6 2.9l-3.4 32.2c-.2 1.3-1.3 2.3-2.6 2.3z" fill="#fff" stroke="#000" stroke-width="2" stroke-miterlimit="10"/>
	<path d="M19.7 16c-.1-.1-.2-.1-.3-.1-.3 0-.5.2-.5.5v12.3c0 .1 0 .2.1.3.2.2.5.3.7.1l8.4-6.1.1-.1c.2-.2.1-.5-.1-.7L19.7 16z" opacity=".2" stroke="#000" stroke-width="1.5"/>
	<path d="M19.6 12.3c-.1-.1-.2-.1-.3-.1-.3 0-.5.2-.5.5v12.7c0 .1 0 .2.1.3.2.2.5.3.7.1l8.6-6.3.1-.1c.2-.2.1-.5-.1-.7l-8.6-6.4z" fill="#e6311f" stroke="#e6311f"/>
	<path d="M36.6 38.8H4.9c-1.6 0-2.9-1.3-2.9-2.9v-.1h37.7v.1c-.1 1.5-1.4 2.9-3.1 2.9z" opacity=".2"/>
</svg>
